<svg width="48" height="48" viewBox="0 0 48 48" fill="none" xmlns="http://www.w3.org/2000/svg">
<g clip-path="url(#clip0_1842_1913)">
<path d="M44.1425 14.3416C44.1261 14.1443 44.0835 13.949 44.0409 13.7546C43.9906 13.5275 43.9451 13.2965 43.8658 13.0781C43.7458 12.748 43.6529 12.3949 43.3306 12.1812C43.3142 12.1706 43.3113 12.1408 43.3016 12.1206C43.2096 11.9253 42.9958 11.7953 42.7751 11.805C42.5729 11.8136 42.3726 11.8107 42.1742 11.8762C42.0087 11.9301 41.8297 11.9397 41.6574 11.9734C41.5607 11.9926 41.4649 12.0186 41.3691 12.0465C41.2491 12.0811 41.1329 12.1312 41.011 12.1552C40.8271 12.1918 40.6394 12.2111 40.4536 12.238C40.4342 12.2399 40.4159 12.2447 40.3965 12.2486C40.2233 12.289 40.051 12.341 39.8749 12.3679C39.7017 12.3949 39.5265 12.4064 39.3514 12.4353C39.0204 12.4911 38.6807 12.4786 38.343 12.5286C37.9666 12.5854 37.5785 12.5729 37.1943 12.518C36.9611 12.4844 36.7269 12.5546 36.485 12.493C36.2682 12.4382 36.0302 12.4632 35.8018 12.4459C35.6508 12.4343 35.4999 12.4112 35.3499 12.392C35.2405 12.3775 35.1312 12.3621 35.0237 12.341C34.8796 12.314 34.7373 12.2784 34.5941 12.2515C34.4741 12.2284 34.3531 12.2139 34.2331 12.1928C34.1431 12.1764 34.0531 12.1601 33.9651 12.137C33.7928 12.0927 33.6235 12.0388 33.4502 11.9984C33.1977 11.9397 32.9432 11.8935 32.6915 11.8338C32.5145 11.7915 32.3412 11.7366 32.1661 11.6866C32.0964 11.6674 32.0267 11.6452 31.9561 11.6279C31.75 11.5779 31.5438 11.5278 31.3358 11.4826C31.2167 11.4566 31.0958 11.4374 30.9748 11.4172C30.8442 11.395 30.7126 11.3748 30.5819 11.3517C30.4319 11.3248 30.2829 11.2882 30.1319 11.268C29.9481 11.2439 29.7613 11.2334 29.5755 11.217C29.5649 11.216 29.5532 11.2103 29.5416 11.2083C29.3384 11.1785 29.1362 11.139 28.932 11.1217C28.7646 11.1083 28.5981 11.115 28.4278 11.0938C28.0881 11.0524 27.7397 11.0486 27.3962 11.0573C26.743 11.0746 26.0879 11.089 25.4395 11.192C25.3563 11.2045 25.2682 11.1891 25.1859 11.2064C24.9924 11.2459 24.8047 11.3123 24.6102 11.3382C24.3789 11.3671 24.1553 11.4114 23.9337 11.4845C23.7469 11.5461 23.5505 11.5779 23.3589 11.6269C23.2853 11.6462 23.2147 11.6779 23.1421 11.7001C22.965 11.7559 22.786 11.803 22.6109 11.8656C22.4241 11.932 22.2422 12.0119 22.0583 12.086C21.8599 12.1649 21.6547 12.2303 21.4641 12.3236C21.0606 12.5228 20.6599 12.7297 20.2661 12.9463C19.9951 13.0954 19.7319 13.2619 19.4725 13.4322C19.2809 13.5583 19.1019 13.7036 18.9171 13.8402C18.8039 13.9249 18.6897 14.0086 18.5784 14.0953C18.3529 14.2733 18.1255 14.4494 17.9048 14.6332C17.7713 14.7438 17.6513 14.8699 17.5216 14.9854C17.4191 15.0758 17.2933 15.1451 17.211 15.25C16.8558 15.7004 16.5133 16.1604 16.1668 16.6165C15.9878 16.8523 15.7904 17.0774 15.6346 17.3267C14.5101 19.1281 13.795 21.0874 13.403 23.165C13.1969 24.2562 13.0914 25.359 13.0953 26.4705C13.0885 27.3375 13.1582 28.1998 13.2937 29.0562C13.3014 29.1072 13.3169 29.1678 13.3508 29.2025C13.4475 29.3035 13.4911 29.4171 13.5279 29.5528C13.6421 29.9704 13.765 30.388 13.9188 30.7932C14.095 31.258 14.3011 31.7122 14.5072 32.1654C14.6224 32.4204 14.7472 32.6745 14.8953 32.9122C15.0733 33.197 15.2717 33.4703 15.4749 33.7378C15.6878 34.0169 15.9046 34.295 16.1417 34.5529C16.4504 34.8868 16.8249 35.1437 17.2207 35.366C17.5516 35.5527 17.8845 35.7394 18.229 35.8982C18.5077 36.0281 18.8058 36.1195 19.0961 36.2235C19.219 36.2668 19.3438 36.3033 19.4696 36.3332C19.7077 36.3899 19.9467 36.4409 20.1858 36.4929C20.3832 36.5362 20.5796 36.5843 20.778 36.6199C20.988 36.6584 21.1999 36.6863 21.4109 36.7152C21.6799 36.7527 21.9489 36.7912 22.2189 36.823C22.4241 36.847 22.6312 36.8644 22.8373 36.8778C23.2253 36.9038 23.6134 36.8778 24.0024 36.9346C24.256 36.9712 24.5221 36.9086 24.7824 36.9028C25.065 36.8971 25.3475 36.9048 25.6292 36.9057C25.664 36.9057 25.6988 36.9057 25.7337 36.9019C25.9872 36.8711 26.2398 36.8374 26.4933 36.8095C26.6956 36.7883 26.8978 36.7739 27.1001 36.7566C27.1156 36.7566 27.1301 36.7479 27.1456 36.745C27.2791 36.7181 27.4127 36.6883 27.5472 36.6632C27.7581 36.6247 27.9701 36.5959 28.1801 36.5497C28.4123 36.4996 28.6426 36.4381 28.8729 36.3755C29.0868 36.3178 29.3016 36.261 29.5107 36.1898C29.7487 36.108 29.9839 36.0156 30.2161 35.9194C30.6139 35.7539 31.0087 35.5835 31.4025 35.4132C31.5196 35.3622 31.6329 35.3045 31.7461 35.2467C31.9396 35.1466 32.1332 35.0456 32.3257 34.9417C32.5077 34.8425 32.6886 34.7434 32.8677 34.6385C33.0564 34.5298 33.2422 34.4143 33.428 34.3008C33.5954 34.1997 33.7628 34.0977 33.9273 33.9928C34.0754 33.8976 34.2196 33.7965 34.3667 33.6993C34.6028 33.5425 34.8505 33.401 35.0731 33.2268C35.5463 32.8573 36.0079 32.4724 36.4705 32.0904C36.6185 31.9681 36.7598 31.8373 36.9001 31.7064C36.9814 31.6313 37.0598 31.5524 37.1324 31.4687C37.3172 31.2541 37.4972 31.0366 37.6792 30.8192C37.9104 30.543 38.1369 30.2629 38.3169 29.9483C38.4156 29.7741 38.5404 29.6153 38.6449 29.445C38.7765 29.2313 38.9082 29.0158 39.0233 28.7925C39.1259 28.5953 39.213 28.3884 39.2972 28.1815C39.3668 28.0073 39.4385 27.8312 39.481 27.6493C39.5178 27.4925 39.5159 27.3279 39.5101 27.1614C39.5014 26.9266 39.4297 26.7207 39.3368 26.5157C39.2469 26.3184 39.1094 26.2761 38.9275 26.3839C38.6682 26.5369 38.4156 26.7005 38.1543 26.8487C37.1372 27.4241 36.125 28.0092 35.0973 28.5635C34.4528 28.9109 33.7831 29.2111 33.1241 29.5306C33.0002 29.5912 32.9877 29.5807 32.9432 29.4565C32.8609 29.2246 32.7815 28.9908 32.6886 28.7637C32.5696 28.475 32.4293 28.1959 32.2116 27.965C31.8932 27.6272 31.4954 27.5723 31.0997 27.8148C30.7561 28.0246 30.4784 28.3095 30.2297 28.6203C29.7061 29.2727 29.2968 29.9954 28.9165 30.7364C28.8768 30.8134 28.8323 30.8644 28.7413 30.8827C28.3252 30.9645 27.9101 31.0568 27.493 31.1357C26.7159 31.283 25.9301 31.3503 25.1395 31.3561C24.9034 31.358 24.9005 31.3552 24.944 31.1281C25.0688 30.4718 25.0872 29.8126 24.9769 29.1534C24.9266 28.8541 24.8676 28.5548 24.7205 28.2835C24.5405 27.9505 24.2163 27.7927 23.8669 27.8986C23.6995 27.9496 23.5292 28.0275 23.3937 28.1353C22.6825 28.7021 21.9799 29.2804 21.2783 29.8607C21.1951 29.929 21.1399 29.9396 21.0635 29.8636C20.837 29.6384 20.5961 29.4248 20.3812 29.189C19.9148 28.6751 19.5935 28.0804 19.4309 27.4049C19.308 26.8987 19.2926 26.3839 19.3371 25.8681C19.368 25.512 19.4358 25.1598 19.5984 24.8346C19.9371 24.1533 20.6783 23.9213 21.317 23.9387C21.3954 23.9406 21.4031 23.9752 21.3789 24.0445C21.2019 24.568 21.0238 25.0915 20.8554 25.6179C20.7635 25.9037 20.689 26.1962 20.7325 26.5013C20.7703 26.765 20.8912 26.9824 21.1225 27.1268C21.4283 27.3183 21.7583 27.3183 22.096 27.2394C22.5305 27.1393 22.9283 26.9488 23.297 26.7082C23.8689 26.3338 24.4263 25.9403 24.9876 25.5515C25.0688 25.4947 25.1356 25.487 25.2314 25.5245C25.6146 25.6776 26.0027 25.8181 26.3898 25.9614C26.4566 25.9855 26.4866 26.0211 26.4875 26.0962C26.4933 26.4917 26.4904 26.8881 26.5175 27.2827C26.5456 27.709 26.6036 28.1314 26.7594 28.5356C27.0062 29.1755 27.5704 29.3834 28.1733 29.0533C28.4578 28.8965 28.692 28.6799 28.9107 28.4442C29.4187 27.8957 29.8319 27.2788 30.219 26.6427C30.2694 26.56 30.3264 26.5282 30.4223 26.5225C30.7968 26.5013 31.1713 26.4753 31.5448 26.4426C31.9145 26.4089 32.2832 26.3666 32.6519 26.3252C32.7457 26.3136 32.8115 26.3358 32.8667 26.4195C32.9422 26.535 33.0302 26.6427 33.1173 26.7505C33.4106 27.1133 33.7038 27.4771 34.0889 27.7513C34.4963 28.0419 35.0876 28.0958 35.5308 27.6926C35.9044 27.3529 36.2411 26.9805 36.4647 26.5263C36.6389 26.1722 36.7705 25.7969 36.9301 25.4351C36.9563 25.3764 37.0172 25.3177 37.0763 25.2888C37.4808 25.0905 37.892 24.9039 38.2966 24.7056C38.644 24.5363 38.9246 24.2745 39.2101 24.0224C39.392 23.8598 39.5585 23.6798 39.7297 23.5066C39.7917 23.444 39.8488 23.3776 39.9049 23.3103C40.0684 23.1149 40.2281 22.9167 40.3917 22.7214C40.5697 22.5087 40.7536 22.3008 40.9307 22.0872C41.0516 21.94 41.1726 21.7918 41.2781 21.6339C41.46 21.3635 41.6274 21.0835 41.8055 20.8102C41.8916 20.6765 41.9952 20.5523 42.0774 20.4157C42.1955 20.2213 42.3029 20.0211 42.4122 19.8219C42.509 19.6458 42.6077 19.4716 42.6968 19.2917C42.7722 19.1397 42.8322 18.9799 42.9019 18.8259C42.9851 18.6441 43.0722 18.4632 43.1564 18.2813C43.2029 18.1822 43.2474 18.0821 43.2929 17.983C43.3442 17.8694 43.4003 17.7578 43.4467 17.6423C43.498 17.5124 43.5387 17.3786 43.5871 17.2468C43.6258 17.1409 43.6722 17.037 43.71 16.9302C43.7796 16.7349 43.8532 16.5405 43.9093 16.3413C43.95 16.194 43.9296 16.0218 43.9983 15.8919C44.1058 15.6879 44.1038 15.4713 44.1348 15.2577C44.1522 15.1355 44.1338 15.0085 44.1348 14.8843C44.1377 14.7034 44.158 14.5206 44.1425 14.3416ZM14.9282 28.0256C14.7801 27.8062 14.9204 27.5107 15.1885 27.4732C15.3423 27.452 15.5059 27.4626 15.6597 27.4886C16.4639 27.6214 17.2468 27.5454 18.0142 27.2769C18.1148 27.2423 18.2223 27.2201 18.3287 27.2105C18.4613 27.199 18.5639 27.2682 18.619 27.3837C18.6722 27.4973 18.6722 27.6224 18.5881 27.7225C18.531 27.7917 18.4564 27.8553 18.3771 27.8966C17.719 28.2421 17.0136 28.4028 16.2704 28.4095C15.9133 28.4086 15.5562 28.3874 15.2223 28.2517C15.1101 28.2065 14.994 28.1237 14.9282 28.0256ZM15.2146 29.6442C15.2098 29.5027 15.2872 29.3786 15.4256 29.3516C15.5514 29.3266 15.6859 29.316 15.8136 29.3305C16.2791 29.3815 16.7446 29.4113 17.2129 29.3632C17.6881 29.3151 18.1323 29.1678 18.5581 28.96C18.6268 28.9263 18.6993 28.8936 18.7729 28.8782C18.9471 28.8416 19.0787 28.8945 19.1464 29.0168C19.2171 29.1428 19.1967 29.3189 19.0661 29.4257C18.9122 29.5518 18.7468 29.6702 18.5716 29.7635C17.9765 30.082 17.33 30.1946 16.5994 30.1965C16.2771 30.186 15.893 30.1802 15.533 30.0291C15.3627 29.9569 15.2223 29.852 15.2146 29.6442ZM19.4958 30.7277C19.5742 30.6931 19.668 30.6729 19.7532 30.6777C19.8683 30.6844 19.967 30.7393 20.0077 30.8625C20.0551 31.001 20.0261 31.1338 19.9187 31.2204C19.7706 31.3398 19.61 31.4523 19.4377 31.5341C18.5919 31.9373 17.6968 32.1058 16.762 32.0461C16.5849 32.0345 16.4068 31.9787 16.2394 31.9162C16.0962 31.8623 16.0149 31.7362 16.0265 31.5784C16.0381 31.435 16.1726 31.3003 16.3401 31.2801C16.5771 31.2503 16.8162 31.2445 17.0552 31.2281C17.9048 31.2387 18.7177 31.0694 19.4958 30.7277ZM25.0001 23.061C23.3318 23.0476 21.9847 21.685 22.0002 20.0259C22.006 19.3196 22.2557 18.6739 22.6708 18.1648L28.0388 19.7623C28.0484 19.8623 28.0523 19.9634 28.0513 20.0664C28.0349 21.7157 26.6501 23.0755 25.0001 23.061ZM40.4652 15.684C40.4217 15.9044 40.2842 16.0276 40.0994 16.0439C39.9301 16.0584 39.7452 15.9361 39.6755 15.7437C39.5623 15.4329 39.513 15.1114 39.5585 14.7814C39.6001 14.485 39.9678 14.2771 40.2484 14.3907C40.4207 14.46 40.4797 14.611 40.4942 14.7785C40.5058 14.9074 40.4971 15.0393 40.4971 15.1692C40.5058 15.1701 40.5155 15.1701 40.5252 15.1711C40.5058 15.3424 40.4981 15.5156 40.4652 15.684Z" fill="white"/>
<path d="M22.0002 20.0259C21.9847 21.685 23.3318 23.0476 25.0001 23.061C26.6501 23.0755 28.0349 21.7157 28.0513 20.0664C28.0523 19.9634 28.0484 19.8623 28.0388 19.7623L22.6708 18.1648C22.2557 18.6739 22.006 19.3196 22.0002 20.0259Z" fill="black"/>
<path d="M15.8078 15.279C15.7865 15.3136 15.7661 15.3492 15.742 15.381C14.8139 16.5954 14.1065 17.932 13.5346 19.3428C13.1775 20.2204 12.8882 21.1202 12.6666 22.0401C12.1488 24.1851 11.9853 26.3522 12.2708 28.5463C12.2756 28.5848 12.263 28.6252 12.2582 28.6646C12.2233 28.655 12.1866 28.6492 12.1527 28.6358C11.7956 28.4943 11.4434 28.3432 11.0824 28.2123C10.8356 28.1229 10.5782 28.0632 10.3266 27.9881C10.2057 27.9525 10.0866 27.9092 9.96372 27.8784C9.77889 27.8303 9.59309 27.786 9.40632 27.7476C9.1702 27.6994 8.93311 27.6581 8.69602 27.6167C8.58666 27.5974 8.47731 27.5811 8.36699 27.5676C8.20054 27.5464 8.0341 27.5214 7.86668 27.5118C7.50282 27.4906 7.13799 27.48 6.77413 27.4608C6.60575 27.4521 6.43253 27.3953 6.27285 27.4242C5.96222 27.4791 5.64771 27.4377 5.34191 27.4848C4.9916 27.5387 4.64516 27.5974 4.29097 27.5772C4.22807 27.5734 4.16323 27.5368 4.10807 27.5031C3.95227 27.4059 3.87776 27.2491 3.85453 27.0797C3.84098 26.9854 3.88066 26.8786 3.91356 26.7833C4.01227 26.4966 4.11291 26.2098 4.2242 25.9278C4.32968 25.6622 4.45065 25.4024 4.5629 25.1387C4.67612 24.8741 4.77967 24.6047 4.90063 24.3429C5.00418 24.1187 5.12418 23.9012 5.2403 23.6818C5.38643 23.4056 5.52771 23.1256 5.68739 22.8571C5.84996 22.5857 6.02899 22.323 6.20802 22.0613C6.35608 21.8438 6.51188 21.6321 6.66865 21.4214C6.75478 21.3049 6.84865 21.1923 6.94445 21.0826C7.13122 20.8661 7.33734 20.6631 7.50863 20.434C7.79217 20.0539 8.17055 19.77 8.49667 19.4332C8.67085 19.2533 8.84795 19.0753 9.03665 18.9097C9.23116 18.7385 9.44116 18.5826 9.64438 18.4209C9.76147 18.3275 9.87663 18.2323 9.99759 18.1447C10.2608 17.9532 10.5231 17.7607 10.7931 17.5789C11.0969 17.3739 11.4076 17.1757 11.7192 16.9813C11.8295 16.913 11.9543 16.8677 12.0704 16.8061C12.3279 16.6705 12.5804 16.5251 12.8407 16.3943C13.1456 16.2413 13.4523 16.0911 13.7639 15.9555C14.1278 15.7976 14.4965 15.6514 14.8681 15.5118C15.08 15.432 15.3016 15.3762 15.5184 15.3098C15.6065 15.2828 15.6945 15.2578 15.7836 15.2318C15.7913 15.2472 15.8 15.2636 15.8078 15.279Z" fill="white"/>
</g>
<defs>
<clipPath id="clip0_1842_1913">
<rect width="40.2967" height="25.8927" fill="white" transform="translate(3.85168 11.0536)"/>
</clipPath>
</defs>
</svg>
