<svg width="235" height="151" viewBox="0 0 235 151" fill="none" xmlns="http://www.w3.org/2000/svg">
<g id="Layer_1" clip-path="url(#clip0_1670_2047)">
<g id="Vector">
<path d="M234.966 19.1759C234.87 18.0255 234.622 16.8863 234.374 15.7527C234.08 14.4283 233.815 13.0814 233.352 11.8075C232.652 9.8826 232.11 7.82302 230.231 6.57718C230.135 6.51545 230.118 6.34148 230.062 6.22363C229.526 5.08441 228.279 4.3268 226.992 4.38291C225.812 4.43342 224.644 4.41659 223.487 4.7982C222.522 5.11246 221.478 5.16858 220.474 5.365C219.909 5.47724 219.351 5.62876 218.792 5.79151C218.092 5.99354 217.415 6.28536 216.704 6.42565C215.632 6.63891 214.537 6.75115 213.453 6.90828C213.34 6.9195 213.233 6.94756 213.12 6.97001C212.11 7.20571 211.105 7.50876 210.078 7.66589C209.068 7.82302 208.047 7.89037 207.025 8.05872C205.095 8.38422 203.114 8.31126 201.145 8.60308C198.949 8.93418 196.686 8.86123 194.446 8.54135C193.086 8.34493 191.72 8.7546 190.309 8.39544C189.045 8.07556 187.657 8.22147 186.325 8.12046C185.445 8.05311 184.564 7.91843 183.689 7.80619C183.052 7.72201 182.414 7.63222 181.788 7.50876C180.947 7.35162 180.117 7.14398 179.282 6.98685C178.582 6.85216 177.877 6.76798 177.177 6.64452C176.652 6.54912 176.127 6.45371 175.614 6.31903C174.609 6.06088 173.621 5.74661 172.611 5.51091C171.138 5.16858 169.654 4.89921 168.187 4.55127C167.154 4.30435 166.144 3.98447 165.122 3.69265C164.716 3.58041 164.31 3.45134 163.898 3.35032C162.696 3.0585 161.494 2.76668 160.28 2.50292C159.586 2.3514 158.881 2.23916 158.175 2.12131C157.413 1.99224 156.646 1.87439 155.884 1.7397C155.009 1.58257 154.14 1.36931 153.26 1.25146C152.188 1.11116 151.098 1.04943 150.015 0.954031C149.953 0.948419 149.885 0.914747 149.817 0.903523C148.632 0.729554 147.453 0.499465 146.262 0.39845C145.286 0.319883 144.315 0.359167 143.322 0.235704C141.341 -0.0056082 139.309 -0.0280559 137.306 0.0224514C133.496 0.123466 129.676 0.207645 125.895 0.808121C125.409 0.881076 124.896 0.791285 124.416 0.892299C123.287 1.12239 122.192 1.50961 121.058 1.66113C119.709 1.82949 118.406 2.08764 117.113 2.51414C116.024 2.87331 114.879 3.0585 113.761 3.34471C113.332 3.45695 112.92 3.64214 112.497 3.77122C111.464 4.09671 110.42 4.37169 109.399 4.73647C108.31 5.12369 107.249 5.58948 106.176 6.0216C105.019 6.48177 103.823 6.86338 102.711 7.40774C100.358 8.56941 98.0215 9.77597 95.7246 11.0387C94.1444 11.9085 92.6094 12.8794 91.097 13.8727C89.9795 14.6078 88.9355 15.4552 87.8576 16.2521C87.1973 16.746 86.5314 17.2342 85.8824 17.7393C84.5674 18.7775 83.2412 19.8045 81.9545 20.8764C81.1757 21.5217 80.4759 22.2569 79.7197 22.9303C79.1215 23.4578 78.3878 23.8619 77.9081 24.4736C75.837 27.1 73.8392 29.7825 71.8188 32.4425C70.7748 33.8174 69.6235 35.1306 68.7149 36.5841C62.1572 47.0896 57.9867 58.5155 55.7011 70.6317C54.499 76.9956 53.8839 83.4268 53.9064 89.9086C53.8669 94.965 54.2733 99.9932 55.0634 104.988C55.1085 105.285 55.1988 105.639 55.3963 105.841C55.9607 106.43 56.2146 107.092 56.4291 107.884C57.095 110.319 57.8117 112.755 58.709 115.117C59.7362 117.828 60.9382 120.477 62.1403 123.12C62.8118 124.607 63.5399 126.089 64.4033 127.475C65.4417 129.136 66.5986 130.73 67.7837 132.29C69.0253 133.917 70.2895 135.539 71.6721 137.043C73.4724 138.99 75.6564 140.489 77.9646 141.785C79.8946 142.874 81.836 143.963 83.8451 144.889C85.4704 145.646 87.2086 146.179 88.9016 146.785C89.6184 147.038 90.3464 147.251 91.08 147.425C92.4683 147.756 93.8622 148.054 95.2562 148.357C96.4075 148.609 97.5531 148.89 98.71 149.098C99.9346 149.322 101.171 149.485 102.401 149.653C103.97 149.872 105.539 150.096 107.113 150.282C108.31 150.422 109.517 150.523 110.719 150.602C112.982 150.753 115.245 150.602 117.514 150.933C118.993 151.146 120.545 150.781 122.063 150.747C123.711 150.714 125.358 150.759 127.001 150.764C127.204 150.764 127.407 150.764 127.61 150.742C129.089 150.562 130.562 150.366 132.04 150.203C133.22 150.08 134.399 149.995 135.579 149.894C135.669 149.894 135.754 149.844 135.844 149.827C136.623 149.67 137.402 149.496 138.186 149.35C139.416 149.126 140.652 148.957 141.877 148.688C143.231 148.396 144.575 148.037 145.918 147.672C147.165 147.335 148.418 147.004 149.637 146.589C151.025 146.112 152.396 145.573 153.751 145.012C156.07 144.047 158.373 143.054 160.67 142.06C161.353 141.763 162.013 141.426 162.673 141.089C163.802 140.506 164.931 139.916 166.054 139.31C167.115 138.732 168.17 138.154 169.214 137.543C170.314 136.908 171.398 136.235 172.482 135.573C173.458 134.984 174.434 134.389 175.394 133.777C176.257 133.221 177.098 132.632 177.956 132.065C179.333 131.151 180.777 130.326 182.075 129.31C184.835 127.155 187.527 124.91 190.225 122.682C191.088 121.97 191.912 121.206 192.73 120.443C193.204 120.005 193.661 119.545 194.085 119.057C195.163 117.805 196.212 116.537 197.273 115.269C198.622 113.658 199.943 112.025 200.992 110.19C201.568 109.174 202.296 108.248 202.906 107.255C203.673 106.009 204.441 104.752 205.112 103.45C205.71 102.3 206.218 101.093 206.709 99.8866C207.116 98.8709 207.533 97.8439 207.781 96.7832C207.996 95.8685 207.985 94.9088 207.951 93.938C207.9 92.5687 207.482 91.3677 206.941 90.1724C206.416 89.0219 205.614 88.775 204.553 89.4035C203.041 90.2958 201.568 91.2499 200.044 92.1141C194.113 95.47 188.21 98.8821 182.217 102.115C178.458 104.14 174.553 105.891 170.709 107.755C169.987 108.108 169.914 108.046 169.654 107.322C169.174 105.97 168.712 104.606 168.17 103.282C167.476 101.598 166.657 99.9708 165.388 98.6239C163.531 96.6541 161.212 96.3343 158.903 97.7485C156.9 98.9719 155.28 100.633 153.83 102.446C150.777 106.251 148.39 110.465 146.172 114.786C145.94 115.235 145.681 115.533 145.15 115.639C142.723 116.116 140.302 116.655 137.87 117.115C133.338 117.974 128.756 118.367 124.145 118.4C122.768 118.412 122.751 118.395 123.005 117.07C123.733 113.243 123.84 109.399 123.197 105.555C122.904 103.809 122.559 102.064 121.702 100.481C120.652 98.5397 118.761 97.6194 116.724 98.2367C115.748 98.5341 114.754 98.9887 113.964 99.6172C109.816 102.923 105.719 106.295 101.628 109.679C101.142 110.078 100.821 110.14 100.375 109.696C99.0543 108.383 97.649 107.137 96.3962 105.762C93.676 102.766 91.8024 99.2974 90.8543 95.3578C90.1376 92.4059 90.0473 89.4035 90.3069 86.3955C90.4875 84.3191 90.8825 82.2652 91.8306 80.3683C93.8058 76.3951 98.1287 75.0426 101.853 75.1436C102.311 75.1549 102.356 75.3569 102.215 75.761C101.182 78.8138 100.143 81.8667 99.1615 84.9365C98.6254 86.6032 98.1908 88.3092 98.4448 90.0882C98.6649 91.6259 99.3703 92.8941 100.719 93.7359C102.502 94.8527 104.427 94.8527 106.396 94.3925C108.93 93.8089 111.25 92.6977 113.4 91.2948C116.735 89.1117 119.986 86.8164 123.259 84.5492C123.733 84.2181 124.123 84.1732 124.681 84.3921C126.916 85.2844 129.179 86.1037 131.437 86.9399C131.826 87.0802 132.001 87.2878 132.007 87.7256C132.04 90.0321 132.023 92.3442 132.181 94.6451C132.345 97.1311 132.684 99.5948 133.592 101.952C135.031 105.684 138.322 106.896 141.837 104.971C143.497 104.056 144.862 102.794 146.138 101.419C149.101 98.2199 151.51 94.6226 153.768 90.9131C154.061 90.4305 154.394 90.2453 154.953 90.2117C157.137 90.0882 159.321 89.9367 161.499 89.7459C163.655 89.5494 165.805 89.3025 167.955 89.0612C168.503 88.9939 168.887 89.1229 169.208 89.6112C169.648 90.2846 170.162 90.9131 170.67 91.5417C172.38 93.6574 174.09 95.7787 176.336 97.3781C178.712 99.0729 182.16 99.3872 184.745 97.0358C186.923 95.0547 188.887 92.8829 190.191 90.2341C191.207 88.1689 191.974 85.9803 192.905 83.8702C193.058 83.5279 193.413 83.1855 193.757 83.0172C196.116 81.8611 198.515 80.7724 200.874 79.6163C202.9 78.6286 204.536 77.1022 206.201 75.6319C207.262 74.6835 208.233 73.634 209.232 72.6239C209.593 72.2591 209.926 71.8719 210.253 71.4791C211.207 70.3398 212.138 69.1838 213.092 68.0446C214.13 66.8043 215.203 65.5921 216.235 64.3463C216.941 63.4877 217.646 62.6234 218.261 61.7031C219.322 60.1261 220.299 58.4931 221.337 56.8993C221.839 56.1192 222.443 55.3953 222.923 54.5984C223.611 53.4648 224.238 52.2975 224.876 51.1358C225.44 50.1089 226.016 49.0931 226.535 48.0437C226.975 47.157 227.325 46.2254 227.731 45.3275C228.216 44.2668 228.724 43.2118 229.215 42.1511C229.486 41.5731 229.746 40.9895 230.011 40.4115C230.31 39.7492 230.638 39.0983 230.908 38.4248C231.208 37.6672 231.445 36.8872 231.727 36.1183C231.952 35.501 232.223 34.8949 232.443 34.272C232.85 33.1328 233.279 31.9992 233.606 30.8375C233.843 29.9789 233.725 28.9744 234.125 28.2167C234.752 27.027 234.74 25.7643 234.921 24.5185C235.023 23.8058 234.915 23.065 234.921 22.3411C234.938 21.286 235.056 20.2198 234.966 19.1759ZM64.5952 98.9775C63.7317 97.698 64.55 95.9751 66.1133 95.7562C67.0106 95.6328 67.9643 95.6945 68.8617 95.846C73.5514 96.6205 78.117 96.1771 82.5922 94.6114C83.1792 94.4094 83.8056 94.2803 84.4264 94.2242C85.1995 94.1568 85.7977 94.5609 86.1194 95.2343C86.4298 95.8965 86.4298 96.6261 85.9388 97.2097C85.6058 97.6138 85.1713 97.9842 84.7085 98.2255C80.871 100.24 76.7569 101.177 72.4227 101.217C70.3402 101.211 68.2578 101.088 66.3108 100.296C65.6562 100.033 64.9789 99.5499 64.5952 98.9775ZM66.2657 108.417C66.2374 107.592 66.6889 106.868 67.4959 106.711C68.2296 106.565 69.014 106.503 69.759 106.587C72.4735 106.885 75.188 107.059 77.9194 106.778C80.6904 106.497 83.2807 105.639 85.7639 104.427C86.1646 104.23 86.5878 104.039 87.0167 103.95C88.0325 103.736 88.8001 104.045 89.1951 104.758C89.6071 105.493 89.4886 106.52 88.7267 107.143C87.8294 107.878 86.8643 108.568 85.8429 109.113C82.3721 110.97 78.6023 111.627 74.3415 111.638C72.4622 111.576 70.2217 111.543 68.1224 110.661C67.1291 110.241 66.3108 109.629 66.2657 108.417ZM91.2324 114.736C91.6895 114.534 92.2369 114.416 92.7336 114.444C93.4051 114.483 93.9808 114.803 94.2178 115.521C94.4943 116.33 94.325 117.104 93.6986 117.609C92.8351 118.305 91.8983 118.962 90.8938 119.439C85.9614 121.79 80.7412 122.772 75.2896 122.424C74.2568 122.357 73.2184 122.031 72.2421 121.666C71.4069 121.352 70.9328 120.617 71.0005 119.697C71.0683 118.861 71.8527 118.075 72.829 117.957C74.2117 117.783 75.6056 117.749 76.9995 117.654C81.9545 117.716 86.695 116.728 91.2324 114.736ZM123.332 70.0256C113.603 69.947 105.747 62.0005 105.838 52.3256C105.872 48.2064 107.328 44.4408 109.749 41.4721L141.053 50.7879C141.109 51.3715 141.132 51.9608 141.126 52.5613C141.03 62.1801 132.955 70.1097 123.332 70.0256ZM213.521 27.0046C213.267 28.2897 212.466 29.008 211.388 29.1034C210.4 29.1876 209.322 28.4749 208.916 27.3525C208.256 25.5399 207.968 23.6655 208.233 21.7406C208.476 20.0121 210.62 18.7999 212.257 19.4622C213.261 19.8662 213.606 20.7473 213.69 21.7238C213.758 22.4758 213.707 23.2446 213.707 24.0022C213.758 24.0078 213.814 24.0078 213.871 24.0134C213.758 25.0123 213.713 26.0225 213.521 27.0046Z" fill="white"/>
<path d="M105.838 52.3256C105.747 62.0005 113.603 69.947 123.332 70.0256C132.955 70.1097 141.03 62.1801 141.126 52.5613C141.132 51.9608 141.109 51.3715 141.053 50.7879L109.749 41.4721C107.328 44.4408 105.872 48.2064 105.838 52.3256Z" fill="black"/>
</g>
<path id="Vector_2" d="M69.7251 24.6419C69.6009 24.844 69.4824 25.0516 69.3413 25.2368C63.9292 32.319 59.8039 40.114 56.4686 48.3411C54.3861 53.4591 52.6987 58.7063 51.4064 64.0713C48.3871 76.5803 47.4334 89.2183 49.0982 102.013C49.1264 102.238 49.053 102.474 49.0248 102.704C48.8217 102.648 48.6072 102.614 48.4097 102.535C46.3272 101.71 44.273 100.829 42.168 100.066C40.7289 99.5443 39.2277 99.1963 37.7604 98.7586C37.055 98.5509 36.3609 98.2984 35.6441 98.1188C34.5662 97.8382 33.4827 97.5801 32.3935 97.3556C31.0165 97.075 29.6338 96.8337 28.2512 96.5924C27.6135 96.4801 26.9758 96.3847 26.3324 96.3062C25.3617 96.1827 24.391 96.0368 23.4147 95.9807C21.2928 95.8572 19.1652 95.7955 17.0432 95.6833C16.0613 95.6327 15.0511 95.3016 14.1199 95.47C12.3084 95.7899 10.4742 95.5486 8.6909 95.8235C6.64796 96.1378 4.62759 96.4801 2.56208 96.3623C2.19525 96.3399 1.81714 96.1266 1.49546 95.9302C0.586864 95.3634 0.152316 94.4486 0.0168724 93.4609C-0.0621362 92.911 0.169246 92.288 0.361124 91.7325C0.936759 90.0601 1.52368 88.3878 2.17268 86.7435C2.78782 85.1946 3.49325 83.6793 4.1479 82.1417C4.80818 80.5984 5.41204 79.0271 6.11747 77.5006C6.72132 76.1931 7.42111 74.9247 8.09833 73.6452C8.9505 72.0346 9.77444 70.4015 10.7056 68.8358C11.6537 67.2533 12.6978 65.7212 13.7418 64.1948C14.6053 62.9265 15.5139 61.6918 16.4281 60.4628C16.9304 59.7838 17.4778 59.1272 18.0365 58.4874C19.1257 57.2248 20.3277 56.0406 21.3266 54.705C22.9802 52.4883 25.1868 50.8328 27.0886 48.8686C28.1045 47.8192 29.1372 46.781 30.2377 45.8157C31.372 44.8168 32.5967 43.9077 33.7818 42.9649C34.4646 42.4205 35.1362 41.8649 35.8417 41.3542C37.3767 40.2375 38.9061 39.1151 40.4806 38.0544C42.2527 36.8591 44.0642 35.703 45.8814 34.5694C46.5248 34.171 47.2528 33.9072 47.93 33.548C49.4312 32.7568 50.9041 31.9094 52.4222 31.1461C54.1999 30.2539 55.9889 29.3784 57.8061 28.5871C59.928 27.6668 62.0782 26.8137 64.2453 26C65.4812 25.5342 66.7736 25.2087 68.0377 24.8215C68.5512 24.6644 69.0648 24.5185 69.584 24.3669C69.6292 24.4567 69.6799 24.5521 69.7251 24.6419Z" fill="white"/>
</g>
<defs>
<clipPath id="clip0_1670_2047">
<rect width="235" height="151" fill="white"/>
</clipPath>
</defs>
</svg>
