<svg width="48" height="48" viewBox="0 0 48 48" fill="none" xmlns="http://www.w3.org/2000/svg">
<path d="M41.1612 13.3842C42.3356 15.9769 43.0007 18.6531 43.3167 21.3991C43.8638 26.1755 43.4487 30.8311 40.949 35.1056C40.3406 36.1418 39.5246 37.0757 38.7087 37.9771C38.2276 38.5067 38.1238 38.9621 38.3361 39.6265C38.7747 40.9879 39.4256 42.2098 40.4632 43.2181C40.7981 43.5433 41.1377 43.9568 40.8688 44.375C40.6613 44.7049 40.2085 45.0208 39.8218 45.0812C37.2843 45.4762 35.0204 44.7467 33.0725 43.1948C32.3226 42.6001 31.7377 42.3864 30.851 42.851C30.1671 43.2088 29.3889 43.4039 28.6437 43.6316C28.1768 43.771 28.0494 44.0358 28.1815 44.4493C28.3985 45.1045 28.6154 45.7596 28.8701 46.4008C29.0446 46.8422 29.2333 47.2603 28.8418 47.6832C28.4645 48.0967 27.9787 48.0177 27.5212 47.9294C25.9129 47.6042 24.5262 46.8282 23.4556 45.6434C22.8519 44.9744 22.2765 44.7885 21.3898 44.821C17.2157 44.9837 13.2822 44.0683 9.67405 41.9729C8.1978 41.1179 6.83474 40.0911 5.86786 38.674C5.48582 38.1118 5.17925 37.4613 5.01889 36.8062C4.8208 35.9931 5.28773 35.5145 6.14613 35.5145C6.95265 35.5145 7.75445 35.5656 8.56097 35.6121C8.9713 35.6353 9.24014 35.5052 9.36277 35.1056C9.41465 34.943 9.51369 34.7943 9.60331 34.6457C10.0419 33.9348 10.3862 33.8465 11.089 34.2833C11.2871 34.4041 11.5088 34.5109 11.6691 34.6735C12.2021 35.1986 12.8294 35.2776 13.5038 35.0406C13.7302 34.9616 13.9755 34.7897 14.0934 34.5946C14.3481 34.1671 14.4943 33.6792 14.7348 33.2425C15.0225 32.7175 15.414 32.6152 15.9705 32.8708C16.112 32.9358 16.2488 33.0148 16.3809 33.0938C17.2157 33.5677 17.2581 33.5724 17.9279 32.908C19.1212 31.7278 19.7579 30.2874 19.8569 28.638C19.9088 27.7645 19.8664 26.8864 19.8664 25.971C18.857 26.1894 18.1448 26.9282 18.0411 27.7227C18.0033 28.0247 17.975 28.3314 17.8996 28.6287C17.7345 29.2978 17.2534 29.5162 16.6167 29.2049C16.2818 29.0422 15.9753 28.8332 15.6498 28.6519C14.9188 28.2477 14.216 28.4754 13.8717 29.2327C13.6783 29.6509 13.5227 30.0877 13.3105 30.4965C12.9897 31.1145 12.5417 31.2167 11.9663 30.8078C11.5229 30.4919 11.1173 30.1248 10.6739 29.8089C10.0467 29.3628 9.45238 29.4697 9.00431 30.0923C8.72133 30.4826 8.49022 30.91 8.19308 31.291C7.66012 31.9787 7.31582 32.0019 6.73097 31.3654C6.32536 30.924 6.01407 30.4036 5.5943 29.9715C5.35848 29.7299 5.01889 29.5069 4.69346 29.4418C3.85864 29.2792 3.22663 28.9028 2.67952 28.2617C0.68917 25.9153 -0.0230177 23.1693 0.000564671 20.1864C0.000564671 19.7264 0.00999762 19.2572 0.0948942 18.8111C0.3543 17.4497 1.40607 16.7993 3.07099 16.6134C8.27326 16.0419 13.2774 16.9015 18.2203 18.379C19.5692 18.7832 20.9464 19.0945 22.3095 19.4616C22.6868 19.5638 22.9132 19.4802 23.1349 19.141C24.7762 16.5948 26.9694 14.5923 29.5729 13.0125C29.9077 12.8081 30.403 12.6687 30.7708 12.7431C31.3651 12.8639 31.5491 13.5422 31.2755 14.2159C30.5822 15.9397 30.0351 17.6914 30.1624 19.5777C30.1719 19.6893 30.1766 19.8008 30.186 19.9727C31.1246 20.0238 31.9877 19.8008 32.8272 19.5034C34.4025 18.9458 35.8269 18.1653 36.7372 16.7063C37.3503 15.7213 37.4352 14.648 37.3032 13.5422C37.2796 13.3657 37.1192 13.138 36.9589 13.059C34.0629 11.6651 32.6622 9.17935 31.7896 6.31723C31.2849 4.6678 31.1529 2.96726 31.1906 1.25278C31.2048 0.695223 31.417 0.225948 32.0066 0.0493886C32.6103 -0.136463 32.9876 0.230594 33.2611 0.676638C33.6715 1.35035 34.0252 2.05659 34.412 2.74424C35.5439 4.74214 37.0296 6.41945 39.2652 7.24649C41.4301 8.0503 43.5855 7.81334 45.6608 6.83297C45.9956 6.675 46.3211 6.42874 46.6701 6.38693C46.9908 6.34976 47.4106 6.44268 47.6605 6.63783C47.9671 6.87014 48.1322 7.27902 47.8681 7.6693C46.3446 9.91811 44.5995 11.9392 41.9583 13.0218C41.6942 13.1287 41.4348 13.2588 41.1565 13.3842H41.1612ZM26.1723 29.9343C25.9317 28.8424 25.7761 27.8388 25.4742 26.8771C25.229 26.0825 24.4413 25.9013 23.7763 26.3753C23.2151 26.7748 23.4839 27.2813 23.6395 27.732C24.1678 29.2699 24.1348 30.7753 23.4509 32.2621C23.3707 32.4387 23.2434 32.6199 23.2528 32.7964C23.2717 33.0984 23.2858 33.4655 23.465 33.6792C24.0169 34.3483 24.979 34.1206 25.2903 33.2007C25.6582 32.1227 25.8893 30.9983 26.1723 29.9343ZM29.4455 30.2224C29.205 29.2234 28.9974 28.2105 28.705 27.2255C28.5352 26.654 27.941 26.4078 27.441 26.5751C26.8703 26.7656 26.7005 27.0815 26.8326 27.7506C26.8892 28.0293 26.9552 28.3128 27.0354 28.5869C27.2995 29.4836 27.4221 30.3943 27.1769 31.3096C27.0212 31.8811 26.7854 32.4294 26.5873 32.9916C26.3562 33.6467 26.5213 34.1346 27.0401 34.3576C27.5825 34.5899 28.2098 34.3437 28.4881 33.7489C29.0069 32.6385 29.3135 31.4815 29.4455 30.2177V30.2224ZM12.6832 22.7883C12.6832 22.7883 12.6926 22.7883 12.6973 22.7883C12.6973 22.9045 12.6973 23.016 12.6973 23.1322C12.6737 23.8337 12.9945 24.3541 13.6076 24.6794C14.2207 25.0046 14.8339 24.9907 15.4376 24.6097C16.2677 24.0846 16.5648 22.7047 16.0507 21.6686C15.7206 21.0042 14.9754 20.5999 14.2207 20.6836C13.5651 20.7533 12.9001 21.3247 12.7445 21.9938C12.6832 22.2494 12.702 22.5235 12.6832 22.793V22.7883Z" fill="white"/>
</svg>
