<svg width="182" height="158" viewBox="0 0 182 158" fill="none" xmlns="http://www.w3.org/2000/svg">
<g clip-path="url(#clip0_1570_2121)">
<path d="M181.462 56.6028C181.388 55.7215 181.197 54.8488 181.006 53.9804C180.78 52.9658 180.576 51.934 180.219 50.9581C179.68 49.4835 179.263 47.9057 177.816 46.9513C177.742 46.9041 177.729 46.7708 177.685 46.6805C177.273 45.8078 176.312 45.2274 175.321 45.2704C174.413 45.3091 173.513 45.2962 172.622 45.5885C171.879 45.8293 171.075 45.8723 170.301 46.0227C169.867 46.1087 169.437 46.2248 169.006 46.3495C168.467 46.5042 167.946 46.7278 167.398 46.8353C166.572 46.9986 165.729 47.0846 164.895 47.205C164.808 47.2136 164.725 47.2351 164.638 47.2523C163.86 47.4328 163.087 47.665 162.296 47.7854C161.518 47.9057 160.731 47.9573 159.945 48.0863C158.458 48.3356 156.933 48.2798 155.416 48.5033C153.725 48.757 151.983 48.7011 150.257 48.456C149.21 48.3056 148.158 48.6194 147.071 48.3442C146.098 48.0992 145.029 48.211 144.003 48.1336C143.325 48.082 142.647 47.9788 141.973 47.8928C141.482 47.8284 140.991 47.7596 140.509 47.665C139.861 47.5446 139.222 47.3855 138.579 47.2652C138.04 47.162 137.497 47.0975 136.958 47.0029C136.554 46.9298 136.15 46.8568 135.754 46.7536C134.981 46.5558 134.22 46.3151 133.442 46.1345C132.308 45.8723 131.165 45.6659 130.035 45.3994C129.239 45.2102 128.461 44.9652 127.675 44.7416C127.362 44.6556 127.049 44.5567 126.732 44.4794C125.806 44.2558 124.88 44.0323 123.946 43.8302C123.411 43.7141 122.868 43.6281 122.325 43.5379C121.738 43.439 121.147 43.3487 120.56 43.2455C119.887 43.1252 119.217 42.9618 118.539 42.8715C117.713 42.764 116.875 42.7167 116.04 42.6437C115.992 42.6394 115.94 42.6136 115.888 42.605C114.975 42.4717 114.067 42.2954 113.15 42.218C112.398 42.1579 111.651 42.1879 110.886 42.0934C109.36 41.9085 107.796 41.8913 106.253 41.93C103.319 42.0074 100.377 42.0719 97.4649 42.5319C97.0912 42.5878 96.6957 42.519 96.3262 42.5964C95.457 42.7726 94.6139 43.0693 93.7403 43.1853C92.7016 43.3143 91.6976 43.5121 90.7024 43.8388C89.8636 44.1139 88.9813 44.2558 88.1208 44.4751C87.7905 44.561 87.4732 44.7029 87.1473 44.8018C86.3519 45.0511 85.5479 45.2618 84.7613 45.5412C83.9225 45.8379 83.1054 46.1947 82.2796 46.5257C81.3887 46.8783 80.4673 47.1706 79.6111 47.5876C77.7988 48.4775 75.9995 49.4018 74.2306 50.3691C73.0137 51.0355 71.8316 51.7792 70.6668 52.5402C69.8063 53.1033 69.0023 53.7525 68.1721 54.363C67.6637 54.7413 67.1508 55.1153 66.651 55.5022C65.6384 56.2976 64.617 57.0843 63.6261 57.9054C63.0264 58.3998 62.4874 58.963 61.9051 59.4789C61.4444 59.883 60.8794 60.1925 60.51 60.6611C58.9149 62.6731 57.3764 64.7281 55.8205 66.7658C55.0165 67.8191 54.1299 68.8251 53.4301 69.9386C48.38 77.9865 45.1682 86.7394 43.408 96.0211C42.4823 100.896 42.0086 105.823 42.026 110.789C41.9955 114.662 42.3085 118.514 42.9169 122.34C42.9517 122.568 43.0212 122.839 43.1733 122.994C43.6079 123.445 43.8035 123.952 43.9687 124.559C44.4815 126.424 45.0335 128.29 45.7245 130.1C46.5155 132.176 47.4412 134.206 48.3669 136.231C48.8841 137.37 49.4448 138.505 50.1097 139.567C50.9094 140.839 51.8004 142.06 52.713 143.255C53.6692 144.502 54.6427 145.744 55.7075 146.897C57.0939 148.388 58.7759 149.536 60.5534 150.529C62.0398 151.363 63.5349 152.197 65.0821 152.907C66.3337 153.487 67.6723 153.895 68.9762 154.36C69.5281 154.553 70.0888 154.717 70.6538 154.85C71.7229 155.104 72.7964 155.331 73.8699 155.564C74.7565 155.757 75.6388 155.972 76.5297 156.131C77.4728 156.303 78.4246 156.428 79.3721 156.557C80.5803 156.724 81.7885 156.896 83.0011 157.038C83.9225 157.146 84.8525 157.223 85.7782 157.283C87.521 157.399 89.2638 157.283 91.011 157.537C92.1496 157.7 93.3448 157.421 94.5139 157.395C95.783 157.369 97.052 157.404 98.3168 157.408C98.4732 157.408 98.6297 157.408 98.7861 157.391C99.9248 157.253 101.059 157.103 102.198 156.978C103.106 156.883 104.015 156.819 104.923 156.741C104.992 156.741 105.058 156.703 105.127 156.69C105.727 156.57 106.327 156.436 106.931 156.324C107.878 156.153 108.83 156.024 109.773 155.817C110.816 155.594 111.851 155.318 112.885 155.039C113.845 154.781 114.81 154.527 115.749 154.209C116.818 153.844 117.874 153.431 118.917 153.001C120.704 152.262 122.477 151.501 124.246 150.74C124.772 150.512 125.28 150.254 125.789 149.996C126.658 149.549 127.527 149.098 128.392 148.633C129.209 148.191 130.022 147.748 130.826 147.279C131.673 146.793 132.508 146.278 133.342 145.77C134.094 145.319 134.846 144.863 135.585 144.395C136.25 143.969 136.897 143.517 137.558 143.083C138.618 142.383 139.731 141.751 140.73 140.972C142.856 139.322 144.929 137.602 147.006 135.895C147.671 135.349 148.306 134.765 148.936 134.18C149.301 133.845 149.653 133.492 149.979 133.118C150.809 132.159 151.617 131.188 152.435 130.216C153.473 128.982 154.49 127.731 155.299 126.325C155.742 125.547 156.303 124.838 156.772 124.077C157.363 123.123 157.954 122.16 158.471 121.162C158.932 120.281 159.323 119.357 159.701 118.432C160.014 117.654 160.336 116.867 160.527 116.055C160.692 115.354 160.683 114.619 160.657 113.875C160.618 112.826 160.297 111.906 159.879 110.991C159.475 110.109 158.858 109.92 158.041 110.402C156.876 111.085 155.742 111.816 154.568 112.478C150.001 115.049 145.455 117.663 140.839 120.139C137.945 121.691 134.937 123.032 131.977 124.46C131.421 124.73 131.365 124.683 131.165 124.129C130.795 123.093 130.439 122.048 130.022 121.033C129.487 119.744 128.857 118.497 127.879 117.465C126.449 115.956 124.663 115.711 122.885 116.794C121.342 117.732 120.095 119.004 118.978 120.393C116.627 123.307 114.789 126.536 113.081 129.846C112.902 130.19 112.702 130.418 112.294 130.5C110.425 130.865 108.561 131.278 106.687 131.631C103.197 132.288 99.6684 132.589 96.1176 132.615C95.0572 132.624 95.0441 132.611 95.2397 131.596C95.8004 128.664 95.8829 125.719 95.3875 122.774C95.1615 121.437 94.8964 120.1 94.2358 118.888C93.4274 117.401 91.9714 116.695 90.4025 117.168C89.6506 117.396 88.8857 117.744 88.2773 118.226C85.0829 120.758 81.9276 123.342 78.7767 125.934C78.4029 126.239 78.1552 126.287 77.8118 125.947C76.7948 124.941 75.7126 123.987 74.7478 122.933C72.653 120.638 71.2101 117.981 70.4799 114.963C69.928 112.702 69.8584 110.402 70.0584 108.097C70.1974 106.507 70.5017 104.933 71.2318 103.48C72.7529 100.436 76.0821 99.4002 78.9505 99.4776C79.3025 99.4862 79.3373 99.641 79.2286 99.9505C78.4333 102.289 77.6336 104.628 76.8774 106.98C76.4645 108.256 76.1299 109.563 76.3255 110.926C76.4949 112.104 77.0382 113.076 78.0769 113.72C79.4503 114.576 80.9323 114.576 82.4491 114.223C84.4005 113.776 86.1868 112.925 87.8426 111.85C90.4112 110.178 92.9146 108.42 95.4353 106.683C95.8004 106.429 96.1002 106.395 96.5305 106.563C98.2516 107.246 99.9944 107.874 101.733 108.514C102.033 108.622 102.167 108.781 102.172 109.116C102.198 110.883 102.185 112.654 102.306 114.417C102.433 116.321 102.693 118.209 103.393 120.014C104.501 122.873 107.035 123.802 109.743 122.327C111.02 121.627 112.072 120.659 113.054 119.606C115.336 117.155 117.192 114.4 118.93 111.558C119.156 111.188 119.413 111.046 119.843 111.021C121.525 110.926 123.207 110.81 124.885 110.664C126.545 110.513 128.201 110.324 129.856 110.139C130.278 110.088 130.574 110.187 130.821 110.561C131.16 111.077 131.556 111.558 131.947 112.04C133.264 113.66 134.581 115.285 136.31 116.511C138.14 117.809 140.796 118.05 142.786 116.248C144.464 114.731 145.976 113.067 146.98 111.038C147.762 109.456 148.354 107.779 149.071 106.163C149.188 105.9 149.462 105.638 149.727 105.509C151.544 104.624 153.391 103.79 155.207 102.904C156.768 102.147 158.028 100.978 159.31 99.8516C160.127 99.1251 160.875 98.3212 161.644 97.5473C161.922 97.2679 162.178 96.9712 162.431 96.6703C163.165 95.7976 163.882 94.912 164.617 94.0393C165.416 93.0892 166.242 92.1606 167.037 91.2062C167.581 90.5484 168.124 89.8863 168.598 89.1813C169.415 87.9732 170.167 86.7222 170.966 85.5013C171.353 84.9037 171.818 84.3491 172.188 83.7386C172.718 82.8702 173.2 81.976 173.691 81.0861C174.126 80.2994 174.569 79.5212 174.969 78.7173C175.308 78.0381 175.578 77.3244 175.89 76.6366C176.264 75.824 176.655 75.0158 177.033 74.2033C177.242 73.7605 177.442 73.3134 177.646 72.8706C177.877 72.3633 178.129 71.8646 178.337 71.3487C178.568 70.7683 178.75 70.1707 178.968 69.5817C179.141 69.1088 179.35 68.6445 179.519 68.1673C179.832 67.2946 180.163 66.4262 180.415 65.5363C180.597 64.8785 180.506 64.109 180.815 63.5286C181.297 62.6172 181.288 61.6499 181.427 60.6955C181.506 60.1495 181.423 59.5821 181.427 59.0275C181.44 58.2193 181.532 57.4024 181.462 56.6028ZM50.2575 117.736C49.5925 116.756 50.2227 115.436 51.4266 115.268C52.1176 115.174 52.8521 115.221 53.5431 115.337C57.1548 115.93 60.6708 115.591 64.1172 114.391C64.5692 114.236 65.0516 114.138 65.5297 114.095C66.1251 114.043 66.5858 114.352 66.8335 114.868C67.0726 115.376 67.0726 115.935 66.6945 116.382C66.4381 116.691 66.1034 116.975 65.747 117.16C62.7917 118.703 59.6234 119.421 56.2855 119.451C54.6818 119.447 53.0781 119.352 51.5787 118.746C51.0746 118.544 50.553 118.174 50.2575 117.736ZM51.5439 124.967C51.5222 124.335 51.8699 123.78 52.4914 123.66C53.0564 123.548 53.6605 123.501 54.2342 123.565C56.3247 123.793 58.4151 123.927 60.5187 123.712C62.6526 123.497 64.6475 122.839 66.5597 121.91C66.8683 121.76 67.1943 121.614 67.5246 121.545C68.3069 121.381 68.898 121.618 69.2022 122.164C69.5194 122.727 69.4282 123.514 68.8414 123.991C68.1504 124.554 67.4072 125.083 66.6206 125.5C63.9477 126.923 61.0445 127.426 57.7632 127.435C56.316 127.387 54.5906 127.362 52.9738 126.687C52.2089 126.364 51.5787 125.896 51.5439 124.967ZM70.7711 129.808C71.1232 129.653 71.5447 129.563 71.9272 129.584C72.4444 129.614 72.8877 129.859 73.0702 130.41C73.2832 131.029 73.1528 131.622 72.6704 132.009C72.0054 132.542 71.284 133.045 70.5104 133.41C66.7119 135.212 62.6917 135.964 58.4934 135.697C57.698 135.646 56.8983 135.397 56.1465 135.117C55.5032 134.876 55.1382 134.313 55.1903 133.608C55.2425 132.968 55.8466 132.366 56.5985 132.275C57.6633 132.142 58.7367 132.116 59.8102 132.043C63.6261 132.091 67.2769 131.334 70.7711 129.808ZM95.4918 95.5568C87.9991 95.4967 81.9493 89.4091 82.0189 81.9975C82.0449 78.842 83.1662 75.9573 85.0307 73.6831L109.139 80.8196C109.182 81.2667 109.199 81.7181 109.195 82.1781C109.121 89.5467 102.902 95.6213 95.4918 95.5568ZM164.947 62.6C164.751 63.5845 164.134 64.1348 163.304 64.2079C162.544 64.2724 161.713 63.7264 161.401 62.8666C160.892 61.478 160.67 60.0421 160.875 58.5675C161.062 57.2434 162.713 56.3148 163.973 56.8221C164.747 57.1316 165.012 57.8065 165.077 58.5546C165.13 59.1307 165.09 59.7196 165.09 60.3C165.13 60.3043 165.173 60.3043 165.216 60.3086C165.13 61.0739 165.095 61.8477 164.947 62.6Z" fill="white"/>
<path d="M82.0189 81.9975C81.9493 89.4091 87.9991 95.4967 95.4918 95.5568C102.902 95.6213 109.121 89.5467 109.195 82.1781C109.199 81.7181 109.182 81.2667 109.139 80.8196L85.0307 73.6831C83.1662 75.9573 82.0449 78.842 82.0189 81.9975Z" fill="white"/>
<path d="M107.25 72.0597C110.631 78.6743 107.933 86.7827 101.242 90.1192C94.6272 93.4234 86.3314 90.7018 82.9659 84.1277C82.756 83.7171 82.5695 83.3048 82.4083 82.8849L100.827 65.9247C103.517 67.1469 105.814 69.242 107.25 72.0597Z" fill="black"/>
<path d="M54.2081 60.7902C54.1125 60.945 54.0212 61.1041 53.9126 61.2459C49.7446 66.6714 46.5676 72.6428 43.9991 78.9453C42.3954 82.8661 41.0959 86.8857 40.1006 90.9956C37.7754 100.578 37.041 110.26 38.3231 120.062C38.3448 120.234 38.2883 120.414 38.2666 120.591C38.1101 120.548 37.9449 120.522 37.7928 120.462C36.1891 119.83 34.6071 119.155 32.986 118.57C31.8778 118.17 30.7217 117.904 29.5917 117.568C29.0485 117.409 28.5139 117.216 27.9619 117.078C27.1318 116.863 26.2974 116.666 25.4586 116.494C24.3981 116.279 23.3333 116.094 22.2685 115.909C21.7774 115.823 21.2863 115.75 20.7908 115.69C20.0433 115.595 19.2958 115.483 18.5439 115.44C16.9098 115.346 15.2713 115.298 13.6372 115.212C12.8809 115.174 12.103 114.92 11.3859 115.049C9.99076 115.294 8.57828 115.109 7.20491 115.32C5.63162 115.561 4.07571 115.823 2.48503 115.733C2.20254 115.715 1.91135 115.552 1.66362 115.402C0.963894 114.967 0.629244 114.267 0.524937 113.51C0.464091 113.089 0.642282 112.611 0.79005 112.186C1.23335 110.905 1.68535 109.624 2.18515 108.364C2.65888 107.177 3.20214 106.017 3.70629 104.839C4.21478 103.656 4.67982 102.453 5.22308 101.283C5.68812 100.282 6.22703 99.3101 6.74857 98.3299C7.40483 97.0961 8.03936 95.845 8.75647 94.6456C9.48662 93.4332 10.2906 92.2596 11.0947 91.0902C11.7596 90.1186 12.4594 89.1728 13.1634 88.2313C13.5502 87.7111 13.9718 87.2081 14.4021 86.7181C15.2409 85.7508 16.1666 84.8437 16.9358 83.8205C18.2093 82.1223 19.9086 80.8541 21.3732 79.3494C22.1555 78.5455 22.9509 77.7502 23.7984 77.0107C24.6719 76.2455 25.615 75.549 26.5277 74.8268C27.0536 74.4098 27.5708 73.9842 28.114 73.5929C29.2962 72.7374 30.474 71.8776 31.6865 71.0651C33.0512 70.1494 34.4463 69.2638 35.8458 68.3953C36.3412 68.0901 36.9019 67.888 37.4234 67.6129C38.5795 67.0067 39.7138 66.3576 40.8829 65.7729C42.2519 65.0893 43.6297 64.4187 45.0291 63.8125C46.6632 63.1075 48.3191 62.454 49.988 61.8306C50.9398 61.4738 51.9351 61.2245 52.9086 60.9278C53.3041 60.8074 53.6996 60.6957 54.0994 60.5796C54.1342 60.6484 54.1733 60.7215 54.2081 60.7902Z" fill="white"/>
</g>
<path d="M56.0938 28.8187L53.714 28.8039C53.3209 27.893 53.0999 27.0236 53.0513 26.1956C53.0026 25.3676 52.9735 24.8977 52.9639 24.7861C52.9566 23.7858 52.9889 22.7878 53.0608 21.792C53.1652 20.7821 53.3231 19.807 53.5347 18.8667C53.9157 16.8884 54.3418 15.238 54.8129 13.9154C55.3026 12.5463 55.6694 11.3846 55.9135 10.4302C56.1391 9.52239 56.3163 8.77056 56.445 8.17471C56.6063 7.56481 56.7143 7.05509 56.7691 6.64552L55.5492 7.17209C53.0768 8.23927 51.1695 10.1238 49.8273 12.8257C49.3274 13.8134 49.0175 14.526 48.8977 14.9636C48.7638 15.3687 48.6688 15.5062 48.6126 15.3761C48.5565 15.246 48.381 14.8394 48.0861 14.1562L45.6463 15.2093C45.4778 14.819 45.5204 14.2024 45.7741 13.3597C46.0278 12.5169 46.4231 11.5551 46.9599 10.4744C47.9553 8.57823 48.9842 7.07281 50.0468 5.95811C51.1278 4.79684 52.4002 3.90026 53.8641 3.26838C54.4497 3.01563 54.8634 2.85637 55.1051 2.79061C55.3328 2.69232 55.7746 2.59812 56.4303 2.50802C56.6861 2.47479 57.1097 2.56209 57.7011 2.76992C58.311 2.93118 58.8677 3.1926 59.3711 3.55419C59.8745 3.91577 60.0873 4.36418 60.0096 4.89942C59.9549 5.30898 59.9164 5.71152 59.8941 6.10704C59.8579 6.47003 59.8286 6.84928 59.8064 7.2448C59.7198 7.93824 59.6077 8.66199 59.47 9.41605C59.3509 10.1235 59.16 10.9778 58.8974 11.9787C58.5476 13.4033 58.1278 14.8001 57.6382 16.1692C57.1345 17.5058 56.7495 18.849 56.4832 20.1989C56.2901 21.0927 56.1296 21.9724 56.0015 22.8381C55.892 23.6573 55.8616 24.4808 55.9102 25.3088C55.9161 25.7694 55.9149 26.2137 55.9067 26.6418C55.931 27.0558 56.0134 27.4255 56.1538 27.7508C56.4066 28.3363 56.3866 28.6923 56.0938 28.8187ZM58.4075 41.0184L55.1241 39.715C55.2018 39.1797 55.2544 38.8097 55.2817 38.6049C55.3417 38.3861 55.3531 38.3233 55.3161 38.4164C55.4716 37.3459 55.6088 36.457 55.7279 35.7495C55.8471 35.042 55.9318 34.523 55.9821 34.1926L60.3801 34.7255C60.2891 35.498 60.184 36.2381 60.0648 36.9455C59.9317 37.6205 59.831 38.2814 59.7629 38.9283C59.689 39.1146 59.6453 39.3264 59.632 39.5637C59.6371 39.7544 59.6097 39.9592 59.5498 40.178C59.5823 40.164 59.5827 40.2989 59.5509 40.5828C59.5516 40.8526 59.5009 41.0482 59.3989 41.1694C59.3434 41.3091 59.2244 41.1675 59.0418 40.7446L58.4075 41.0184Z" fill="white"/>
<path d="M37.7481 36.7378L35.3683 36.7231C34.9751 35.8122 34.7542 34.9428 34.7056 34.1148C34.6569 33.2868 34.6278 32.8169 34.6182 32.7053C34.6109 31.705 34.6432 30.707 34.7151 29.7112C34.8195 28.7013 34.9774 27.7262 35.189 26.7859C35.57 24.8076 35.9961 23.1572 36.4672 21.8346C36.9568 20.4655 37.3237 19.3038 37.5678 18.3494C37.7934 17.4416 37.9706 16.6897 38.0993 16.0939C38.2606 15.484 38.3686 14.9743 38.4234 14.5647L37.2034 15.0913C34.7311 16.1585 32.8238 18.043 31.4816 20.7449C30.9817 21.7325 30.6718 22.4452 30.552 22.8828C30.4181 23.2879 30.3231 23.4254 30.2669 23.2953C30.2108 23.1652 30.0353 22.7585 29.7404 22.0754L27.3006 23.1285C27.1321 22.7382 27.1747 22.1216 27.4284 21.2788C27.6821 20.4361 28.0774 19.4743 28.6142 18.3936C29.6096 16.4974 30.6385 14.992 31.7011 13.8773C32.7821 12.716 34.0545 11.8195 35.5184 11.1876C36.104 10.9348 36.5176 10.7756 36.7594 10.7098C36.9871 10.6115 37.4289 10.5173 38.0846 10.4272C38.3404 10.394 38.764 10.4813 39.3554 10.6891C39.9653 10.8504 40.522 11.1118 41.0254 11.4734C41.5288 11.835 41.7416 12.2834 41.6639 12.8186C41.6092 13.2282 41.5707 13.6307 41.5484 14.0262C41.5121 14.3892 41.4829 14.7685 41.4607 15.164C41.3741 15.8574 41.2619 16.5812 41.1243 17.3352C41.0052 18.0427 40.8143 18.897 40.5517 19.8979C40.2018 21.3225 39.7821 22.7193 39.2925 24.0884C38.7888 25.425 38.4038 26.7682 38.1375 28.1181C37.9444 29.0119 37.7838 29.8916 37.6558 30.7573C37.5463 31.5764 37.5159 32.4 37.5645 33.228C37.5704 33.6886 37.5692 34.1329 37.561 34.561C37.5853 34.975 37.6677 35.3446 37.8081 35.67C38.0609 36.2555 38.0409 36.6115 37.7481 36.7378ZM40.0618 48.9376L36.7784 47.6341C36.8561 47.0989 36.9086 46.7289 36.936 46.5241C36.9959 46.3053 37.0074 46.2425 36.9704 46.3356C37.1258 45.2651 37.2631 44.3761 37.3822 43.6687C37.5014 42.9612 37.5861 42.4422 37.6364 42.1118L42.0344 42.6447C41.9433 43.4172 41.8383 44.1572 41.7191 44.8647C41.586 45.5397 41.4853 46.2006 41.4172 46.8475C41.3433 47.0338 41.2996 47.2456 41.2863 47.4829C41.2914 47.6736 41.264 47.8784 41.2041 48.0972C41.2366 48.0832 41.237 48.2181 41.2052 48.502C41.2059 48.7718 41.1552 48.9674 41.0531 49.0886C40.9977 49.2283 40.8787 49.0867 40.6961 48.6638L40.0618 48.9376Z" fill="white"/>
<path d="M19.4014 44.6569L17.0216 44.6422C16.6285 43.7313 16.4075 42.8618 16.3589 42.0338C16.3102 41.2058 16.2811 40.736 16.2715 40.6244C16.2642 39.6241 16.2965 38.6261 16.3684 37.6302C16.4728 36.6204 16.6308 35.6453 16.8423 34.7049C17.2234 32.7266 17.6494 31.0762 18.1206 29.7537C18.6102 28.3846 18.977 27.2229 19.2211 26.2685C19.4467 25.3606 19.6239 24.6088 19.7526 24.013C19.9139 23.4031 20.0219 22.8933 20.0767 22.4838L18.8568 23.0103C16.3844 24.0775 14.4771 25.9621 13.1349 28.664C12.635 29.6516 12.3252 30.3642 12.2053 30.8019C12.0715 31.207 11.9764 31.3445 11.9203 31.2144C11.8641 31.0843 11.6886 30.6776 11.3937 29.9945L8.95388 31.0476C8.78538 30.6572 8.82798 30.0407 9.08168 29.1979C9.33538 28.3552 9.73067 27.3934 10.2676 26.3126C11.2629 24.4165 12.2919 22.9111 13.3544 21.7964C14.4354 20.6351 15.7079 19.7385 17.1718 19.1066C17.7573 18.8539 18.171 18.6946 18.4127 18.6289C18.6404 18.5306 19.0822 18.4364 19.7379 18.3463C19.9937 18.3131 20.4174 18.4004 21.0088 18.6082C21.6186 18.7694 22.1753 19.0309 22.6787 19.3924C23.1821 19.754 23.395 20.2024 23.3173 20.7377C23.2625 21.1472 23.224 21.5498 23.2017 21.9453C23.1655 22.3083 23.1362 22.6875 23.114 23.0831C23.0274 23.7765 22.9153 24.5002 22.7776 25.2543C22.6585 25.9618 22.4677 26.816 22.2051 27.817C21.8552 29.2415 21.4354 30.6384 20.9458 32.0075C20.4422 33.344 20.0572 34.6873 19.7908 36.0372C19.5977 36.931 19.4372 37.8107 19.3091 38.6764C19.1996 39.4955 19.1692 40.3191 19.2178 41.1471C19.2237 41.6077 19.2225 42.052 19.2143 42.48C19.2387 42.894 19.321 43.2637 19.4615 43.589C19.7142 44.1746 19.6942 44.5305 19.4014 44.6569ZM21.7151 56.8567L18.4317 55.5532C18.5094 55.018 18.562 54.648 18.5894 54.4432C18.6493 54.2244 18.6607 54.1615 18.6238 54.2547C18.7792 53.1842 18.9164 52.2952 19.0356 51.5877C19.1547 50.8802 19.2394 50.3613 19.2897 50.0308L23.6877 50.5638C23.5967 51.3363 23.4916 52.0763 23.3725 52.7838C23.2393 53.4588 23.1386 54.1197 23.0705 54.7665C22.9966 54.9528 22.9529 55.1646 22.9396 55.4019C22.9447 55.5927 22.9173 55.7975 22.8574 56.0163C22.89 56.0022 22.8903 56.1372 22.8585 56.421C22.8592 56.6909 22.8085 56.8864 22.7065 57.0077C22.651 57.1474 22.532 57.0058 22.3495 56.5829L21.7151 56.8567Z" fill="white"/>
<defs>
<clipPath id="clip0_1570_2121">
<rect width="180.976" height="115.676" fill="white" transform="translate(0.511719 41.9128)"/>
</clipPath>
</defs>
</svg>
